<?xml version="1.0" encoding="utf-8"?>
<!-- Generator: Adobe Illustrator 18.1.1, SVG Export Plug-In . SVG Version: 6.00 Build 0)  -->
<!DOCTYPE svg PUBLIC "-//W3C//DTD SVG 1.1//EN" "http://www.w3.org/Graphics/SVG/1.1/DTD/svg11.dtd">
<svg version="1.1" xmlns="http://www.w3.org/2000/svg" xmlns:xlink="http://www.w3.org/1999/xlink" x="0px" y="0px" width="32px"
	 height="32px" viewBox="0 0 32 32" enable-background="new 0 0 32 32" xml:space="preserve">
<g id="refImage" display="none">
</g>
<g id="working">
</g>
<g id="assets">
	<path fill="#305F91" d="M16.5,11.3c-2.1,0-3.9,1.2-4.8,2.9c-0.9-1.7-2.7-2.9-4.8-2.9c-1.2,0-2.3,0.4-3.3,1.1V7.8
		c0-0.6-0.5-1.1-1.1-1.1C2,6.8,1.5,7.3,1.5,7.8v9h0c0,3,2.5,5.3,5.4,5.3c2.1,0,3.9-1.2,4.8-2.9c0.9,1.7,2.7,2.9,4.8,2.9
		c3,0,5.4-2.4,5.4-5.4C21.9,13.8,19.5,11.3,16.5,11.3 M6.9,20c-1.8,0-3.3-1.5-3.3-3.2c0-1.8,1.5-3.2,3.3-3.2c1.8,0,3.2,1.5,3.2,3.2
		C10.1,18.5,8.7,20,6.9,20 M16.5,20c-1.8,0-3.3-1.5-3.3-3.3c0-1.8,1.5-3.2,3.3-3.2c1.8,0,3.3,1.5,3.3,3.2C19.7,18.5,18.3,20,16.5,20
		"/>
	<path fill="#305F91" d="M30.3,20.3l-2.9-3.6l2.9-3.6c0.4-0.5,0.3-1.1-0.2-1.5c-0.5-0.4-1.2-0.3-1.6,0.2v0l-2.5,3.1l-2.5-3.1v0
		c-0.4-0.5-1.1-0.6-1.6-0.2c-0.5,0.4-0.6,1-0.2,1.5h0l2.9,3.6l-2.9,3.6h0c-0.4,0.5-0.3,1.1,0.2,1.5c0.5,0.4,1.2,0.3,1.6-0.2l2.5-3.1
		l2.5,3.1c0.4,0.5,1.1,0.6,1.6,0.2C30.6,21.5,30.7,20.8,30.3,20.3"/>
</g>
<g id="TOOLS">
	<g id="boardPlacement" display="none">
	</g>
	<g id="boardSpacing" display="none">
	</g>
	<g id="measure">
	</g>
</g>
</svg>
